<?xml version="1.0" encoding="UTF-8"?>
<svg width="37px" height="16px" viewBox="0 0 37 16" version="1.1" xmlns="http://www.w3.org/2000/svg" xmlns:xlink="http://www.w3.org/1999/xlink">
    <title>Group</title>
    <g id="Page-1" stroke="none" stroke-width="1" fill="none" fill-rule="evenodd">
        <g id="Group" fill="#000000">
            <path d="M8,0 C8.87328145,0 9.71388174,0.139924661 10.500604,0.398577091 C9.45522149,0.741718957 8.50511149,1.29473177 7.69976099,2.00759278 C4.52559875,2.16374931 2,4.78693206 2,8 C2,11.2130679 4.52559875,13.8362507 7.69987219,13.9926242 C8.50511149,14.7052682 9.45522149,15.258281 10.5003974,15.6017521 C9.71388174,15.8600753 8.87328145,16 8,16 C3.581722,16 0,12.418278 0,8 C0,3.581722 3.581722,8.8817842e-16 8,0 Z" id="Combined-Shape"></path>
            <path d="M18,0 C19.0612698,0 20.0742738,0.206650968 21.0009677,0.581908835 C20.1793121,0.913719251 19.4262729,1.3781747 18.7673343,1.94844908 L18.6684013,2.03681119 C18.4489526,2.01248793 18.2259347,2 18,2 C14.6862915,2 12,4.6862915 12,8 C12,11.3137085 14.6862915,14 18,14 C18.2259347,14 18.4489526,13.9875121 18.6684013,13.9631888 L18.7673343,14.0515509 C19.4262729,14.6218253 20.1793121,15.0862807 21.0000295,15.4184949 C20.0742738,15.793349 19.0612698,16 18,16 C13.581722,16 10,12.418278 10,8 C10,3.581722 13.581722,8.8817842e-16 18,0 Z" id="Combined-Shape"></path>
            <rect id="Rectangle" x="21" y="0" width="16" height="16" rx="8"></rect>
        </g>
    </g>
</svg>